<?xml version="1.0" encoding="utf-8"?>
<!-- Generator: Adobe Illustrator 17.0.0, SVG Export Plug-In . SVG Version: 6.00 Build 0)  -->
<!DOCTYPE svg PUBLIC "-//W3C//DTD SVG 1.1//EN" "http://www.w3.org/Graphics/SVG/1.1/DTD/svg11.dtd">
<svg version="1.1" id="Layer_1" xmlns="http://www.w3.org/2000/svg" xmlns:xlink="http://www.w3.org/1999/xlink" x="0px" y="0px"
	 width="40px" height="40px" viewBox="0 0 40 40" enable-background="new 0 0 40 40" xml:space="preserve">
<g>
	<path d="M20,3c9.374,0,17,7.626,17,17s-7.626,17-17,17S3,29.374,3,20S10.626,3,20,3 M20,0C8.954,0,0,8.954,0,20s8.954,20,20,20
		s20-8.954,20-20S31.046,0,20,0L20,0z"/>
</g>
<rect x="19" y="8" transform="matrix(-0.7071 -0.7071 0.7071 -0.7071 20 48.2843)" width="2" height="24"/>
<rect x="19" y="8" transform="matrix(0.7071 -0.7071 0.7071 0.7071 -8.2843 20)" width="2" height="24"/>
</svg>
