<?xml version="1.0" encoding="utf-8"?>
<!-- Generator: Adobe Illustrator 17.0.0, SVG Export Plug-In . SVG Version: 6.00 Build 0)  -->
<!DOCTYPE svg PUBLIC "-//W3C//DTD SVG 1.1//EN" "http://www.w3.org/Graphics/SVG/1.1/DTD/svg11.dtd">
<svg version="1.1" id="Layer_1" xmlns="http://www.w3.org/2000/svg" xmlns:xlink="http://www.w3.org/1999/xlink" x="0px" y="0px"
	 width="50px" height="50px" viewBox="0 0 50 50" enable-background="new 0 0 50 50" xml:space="preserve">
<g>
	<path fill="#5A2BF1" d="M46,4v42H4V4H46 M50,0h-4H4H0v4v42v4h4h42h4v-4V4V0L50,0z"/>
</g>
<g enable-background="new    ">
	<path fill="#5A2BF1" d="M17.495,22.404v-4.952h2.99v-1.215c0-5.56,3.083-8.317,8.13-8.317c1.775,0,3.224,0.327,4.392,0.935
		l-1.261,4.672c-1.028-0.42-1.963-0.654-2.805-0.654c-1.775,0-2.662,0.981-2.662,2.943v1.636h4.952v4.952h-4.952V41h-5.794V22.404
		H17.495z"/>
</g>
</svg>
