<?xml version="1.0" encoding="utf-8"?>
<!-- Generator: Adobe Illustrator 15.0.0, SVG Export Plug-In . SVG Version: 6.00 Build 0)  -->
<!DOCTYPE svg PUBLIC "-//W3C//DTD SVG 1.1//EN" "http://www.w3.org/Graphics/SVG/1.1/DTD/svg11.dtd">
<svg version="1.1" id="Layer_1" xmlns="http://www.w3.org/2000/svg" xmlns:xlink="http://www.w3.org/1999/xlink" x="0px" y="0px"
	 width="50px" height="50px" viewBox="-0.5 0.5 50 50" enable-background="new -0.5 0.5 50 50" xml:space="preserve">
<g>
	<path d="M45.5,4.5v42h-42v-42H45.5 M49.5,0.5h-4h-42h-4v4v42v4h4h42h4v-4v-42V0.5L49.5,0.5z"/>
</g>
<g enable-background="new    ">
	<path d="M16.5,23.5v-5h3v-2c0-5.56,3.568-8.081,8.615-8.081c1.775,0,3.224,0.327,4.392,0.935l-1.261,4.672
		c-1.028-0.42-1.963-0.654-2.805-0.654c-1.775,0-2.941,1.166-2.941,3.127v2l5.23-0.006L30.5,23.5h-5v18h-6v-18H16.5z"/>
</g>
</svg>
