<?xml version="1.0" encoding="utf-8"?>
<!-- Generator: Adobe Illustrator 17.0.0, SVG Export Plug-In . SVG Version: 6.00 Build 0)  -->
<!DOCTYPE svg PUBLIC "-//W3C//DTD SVG 1.1//EN" "http://www.w3.org/Graphics/SVG/1.1/DTD/svg11.dtd">
<svg version="1.1" id="Layer_1" xmlns="http://www.w3.org/2000/svg" xmlns:xlink="http://www.w3.org/1999/xlink" x="0px" y="0px"
	 width="50px" height="50px" viewBox="0 0 50 50" enable-background="new 0 0 50 50" xml:space="preserve">
<g>
	<path fill="#5A2BF1" d="M46,4v42H4V4H46 M50,0h-4H4H0v4v42v4h4h42h4v-4V4V0L50,0z"/>
</g>
<g>
	<path fill="#5A2BF1" d="M9.411,8.014c1.449-1.449,3.878-1.449,5.327,0c1.448,1.448,1.448,3.878,0,5.326
		c-1.449,1.448-3.878,1.448-5.327,0C7.962,11.892,7.962,9.462,9.411,8.014z M9.177,17.452h5.793V41H9.177V17.452z"/>
	<path fill="#5A2BF1" d="M20.857,17.452h5.793v3.784c1.916-2.756,4.346-4.158,7.289-4.158c4.345,0,7.242,2.476,7.242,7.102V41
		h-5.794V25.909c0-2.57-1.121-3.878-3.364-3.878c-2.99,0-5.373,3.644-5.373,9.578V41h-5.793C20.857,41,20.857,17.452,20.857,17.452z
		"/>
</g>
</svg>
