<?xml version="1.0" encoding="utf-8"?>
<!-- Generator: Adobe Illustrator 15.0.0, SVG Export Plug-In . SVG Version: 6.00 Build 0)  -->
<!DOCTYPE svg PUBLIC "-//W3C//DTD SVG 1.1//EN" "http://www.w3.org/Graphics/SVG/1.1/DTD/svg11.dtd">
<svg version="1.1" id="Layer_1" xmlns="http://www.w3.org/2000/svg" xmlns:xlink="http://www.w3.org/1999/xlink" x="0px" y="0px"
	 width="50px" height="50px" viewBox="-0.5 0.5 50 50" enable-background="new -0.5 0.5 50 50" xml:space="preserve">
<g>
	<path d="M45.5,4.5v42h-42v-42H45.5 M49.5,0.5h-4h-42h-4v4v42v4h4h42h4v-4v-42V0.5L49.5,0.5z"/>
</g>
<g>
	<path d="M8.5,19.5h6v23h-6V19.5z"/>
	<path d="M20.5,19.5h6v4c1.916-2.756,3.996-3.922,6.939-3.922c4.345,0,7.061,2.922,7.061,6.922v16h-6v-14
		c0-2.57-0.734-3.969-2.977-3.969c-2.99,0-5.023,2.969-5.023,9.969v8h-6V19.5z"/>
</g>
<circle cx="11.5" cy="12.5" r="4"/>
</svg>
