<?xml version="1.0" encoding="utf-8"?>
<!-- Generator: Adobe Illustrator 17.0.0, SVG Export Plug-In . SVG Version: 6.00 Build 0)  -->
<!DOCTYPE svg PUBLIC "-//W3C//DTD SVG 1.1//EN" "http://www.w3.org/Graphics/SVG/1.1/DTD/svg11.dtd">
<svg version="1.1" id="Layer_1" xmlns="http://www.w3.org/2000/svg" xmlns:xlink="http://www.w3.org/1999/xlink" x="0px" y="0px"
	 width="20px" height="20px" viewBox="0 0 20 20" enable-background="new 0 0 20 20" xml:space="preserve">
<g>
	<g>
		<path fill="#FFFFFF" d="M10,0C4.477,0,0,4.477,0,10c0,5.523,4.477,10,10,10s10-4.477,10-10C20,4.477,15.523,0,10,0z M5,11.5
			c-0.828,0-1.5-0.672-1.5-1.5S4.172,8.5,5,8.5S6.5,9.172,6.5,10S5.828,11.5,5,11.5z M10,11.5c-0.828,0-1.5-0.672-1.5-1.5
			S9.172,8.5,10,8.5s1.5,0.672,1.5,1.5S10.828,11.5,10,11.5z M15,11.5c-0.828,0-1.5-0.672-1.5-1.5s0.672-1.5,1.5-1.5
			s1.5,0.672,1.5,1.5S15.828,11.5,15,11.5z"/>
	</g>
</g>
</svg>
