<?xml version="1.0" encoding="utf-8"?>
<!-- Generator: Adobe Illustrator 17.0.0, SVG Export Plug-In . SVG Version: 6.00 Build 0)  -->
<!DOCTYPE svg PUBLIC "-//W3C//DTD SVG 1.1//EN" "http://www.w3.org/Graphics/SVG/1.1/DTD/svg11.dtd">
<svg version="1.1" id="Layer_1" xmlns="http://www.w3.org/2000/svg" xmlns:xlink="http://www.w3.org/1999/xlink" x="0px" y="0px"
	 width="40px" height="40px" viewBox="0 0 40 40" enable-background="new 0 0 40 40" xml:space="preserve">
<g>
	<path fill="#FFFFFF" d="M20,0C8.954,0,0,8.954,0,20s8.954,20,20,20s20-8.954,20-20S31.046,0,20,0z M10,22.5
		c-1.381,0-2.5-1.119-2.5-2.5s1.119-2.5,2.5-2.5s2.5,1.119,2.5,2.5S11.381,22.5,10,22.5z M20,22.5c-1.381,0-2.5-1.119-2.5-2.5
		s1.119-2.5,2.5-2.5s2.5,1.119,2.5,2.5S21.381,22.5,20,22.5z M30,22.5c-1.381,0-2.5-1.119-2.5-2.5s1.119-2.5,2.5-2.5
		s2.5,1.119,2.5,2.5S31.381,22.5,30,22.5z"/>
	<g>
		<path fill="#FFFFFF" d="M10,17.5c1.381,0,2.5,1.119,2.5,2.5s-1.119,2.5-2.5,2.5S7.5,21.381,7.5,20S8.619,17.5,10,17.5 M10,15.5
			c-2.481,0-4.5,2.019-4.5,4.5s2.019,4.5,4.5,4.5s4.5-2.019,4.5-4.5S12.481,15.5,10,15.5L10,15.5z"/>
	</g>
	<g>
		<path fill="#FFFFFF" d="M20,17.5c1.381,0,2.5,1.119,2.5,2.5s-1.119,2.5-2.5,2.5s-2.5-1.119-2.5-2.5S18.619,17.5,20,17.5 M20,15.5
			c-2.481,0-4.5,2.019-4.5,4.5s2.019,4.5,4.5,4.5s4.5-2.019,4.5-4.5S22.481,15.5,20,15.5L20,15.5z"/>
	</g>
	<g>
		<path fill="#FFFFFF" d="M30,17.5c1.381,0,2.5,1.119,2.5,2.5s-1.119,2.5-2.5,2.5s-2.5-1.119-2.5-2.5S28.619,17.5,30,17.5 M30,15.5
			c-2.481,0-4.5,2.019-4.5,4.5s2.019,4.5,4.5,4.5s4.5-2.019,4.5-4.5S32.481,15.5,30,15.5L30,15.5z"/>
	</g>
</g>
<path fill="#5A2BF1" d="M10,17.5c1.381,0,2.5,1.119,2.5,2.5s-1.119,2.5-2.5,2.5S7.5,21.381,7.5,20S8.619,17.5,10,17.5"/>
<path fill="#5A2BF1" d="M20,17.5c1.381,0,2.5,1.119,2.5,2.5s-1.119,2.5-2.5,2.5s-2.5-1.119-2.5-2.5S18.619,17.5,20,17.5"/>
<path fill="#5A2BF1" d="M30,17.5c1.381,0,2.5,1.119,2.5,2.5s-1.119,2.5-2.5,2.5s-2.5-1.119-2.5-2.5S28.619,17.5,30,17.5"/>
</svg>
