<?xml version="1.0" encoding="utf-8"?>
<!-- Generator: Adobe Illustrator 17.0.0, SVG Export Plug-In . SVG Version: 6.00 Build 0)  -->
<!DOCTYPE svg PUBLIC "-//W3C//DTD SVG 1.1//EN" "http://www.w3.org/Graphics/SVG/1.1/DTD/svg11.dtd">
<svg version="1.1" id="Layer_1" xmlns="http://www.w3.org/2000/svg" xmlns:xlink="http://www.w3.org/1999/xlink" x="0px" y="0px"
	 width="400px" height="400px" viewBox="232.141 0.001 400 400" enable-background="new 232.141 0.001 400 400"
	 xml:space="preserve">
<g>
	<path fill="#FFFFFF" d="M570.834,195.404c-1.243-4.744-6.011-9.99-8.857-13.076c-2.846-3.084-13.92-6.368-17.294-7.17
		c-3.373-0.802-5.213-3.236-6.327-3.795c-1.114-0.559-2.873-2.511-2.109-4.218c0.763-1.707-3.526-2.494-9.701-3.374
		c-6.175-0.88-15.606-0.422-15.606-0.422s-6.116-0.682-8.436,0c-2.32,0.681-4.356,0.468-7.592,1.265
		c-3.236,0.797-6.327,0.777-9.28,1.265c-2.952,0.489-9.26,2.836-10.545,4.218c-1.285,1.381-8.253,2.983-10.967,3.796
		c-2.714,0.812-9.36,4.911-11.81,7.171c-2.451,2.259-5.992,3.038-8.014,5.062c-2.022,2.022-4.608,3.601-5.905,5.061
		c-1.297,1.461-3.485,1.518-5.483,3.797c-1.998,2.277-4.261,4.947-5.061,6.748c-0.801,1.801-3.212,5.154-4.218,7.172
		c-1.006,2.016-3.315,2.457-4.64,4.217c-1.325,1.761-1.048,2.967-1.687,4.641s1.952,0.275,3.796-0.422
		c1.845-0.697,3.15-0.852,4.64-1.266c1.49-0.412,2.705,0.094,3.374,0.422c0.669,0.33,2.185-1.09,2.952-1.265s2.058,2.23,2.952,3.796
		c0.894,1.566-0.166,3.303-0.844,5.062c-0.678,1.76-0.942,3.327-1.265,4.64c-0.323,1.312-1.807,4.045-3.374,9.701
		c-1.567,5.656-2.857,7.994-3.796,13.497c-0.939,5.504-3.599,10.869-5.484,16.872c-1.885,6.003-3.056,12.838-4.218,16.028
		c-1.162,3.189-0.854,4.89-1.265,6.749c-0.411,1.857,0.721-0.642,2.109-0.845c1.388-0.202,0.003,2.191-0.844,3.796
		c-0.847,1.605-0.333,4.986-0.844,6.749c-0.511,1.763-2.277,2.303-3.796,3.796c-1.519,1.494,1.176,1.191,2.531,1.688
		c1.354,0.496,0.113,2.949-0.422,6.327c-0.535,3.378-0.427,7.071-0.844,12.231c-0.417,5.161-0.1,13.489,0,16.45
		c0.1,2.961,0.337,8.539,0.844,10.123c0.506,1.584,1.611,4.679,2.531,6.749c0.92,2.07,2.109,7.59,2.109,7.59l1.266-1.265
		c0,0,0.808-0.564,1.687,0.422s1.54,2.514,2.531,2.531c0.991,0.017,1.21,1.189,1.687,2.108c0.477,0.919,1.159-0.854,2.109-0.422
		c0.95,0.433,1.223,2.182,2.109,2.109c0.886-0.072-0.081-3.97,0-5.062c0.081-1.091,1.571-1.864,2.531-2.53
		c0.959-0.666,1.263-1.905,2.531-2.109c1.268-0.204-0.001-1.947,0.844-2.953c0.845-1.005,2.109-1.265,2.109-1.265
		s1.426,1.559,2.109,1.265c0.683-0.294,1.265,0.844,1.265,0.844s0.471-1.489,0-2.952c-0.471-1.463-0.095-3.983-0.422-5.483
		c-0.327-1.501-0.2-3.629-0.422-4.64c-0.221-1.012,0.896-1.983,1.266-3.796c0.37-1.813,0.169-7.909,0.422-10.123
		c0.253-2.215,1.121-7.952,1.265-9.279c0.145-1.327,0.378-5.297,0.844-7.17c0.466-1.874,2.551-2.294,3.796-1.266
		c1.245,1.029,2.265,2.39,3.374,2.531s1.417,1.679,2.109,2.952c0.691,1.274,1.026,1.948,1.687,2.952
		c0.661,1.004,1.687-0.844,1.687-0.844s1.494,1.328,2.531,2.952c1.037,1.624,1.817,3.338,2.952,3.797
		c1.136,0.459,3.511,4.872,3.374,5.904c-0.137,1.033-0.059,1.608,0.844,2.952c0.903,1.345,1.206-1.273,2.531-1.687
		c1.325-0.414,0.328,1.635,0,2.53c-0.328,0.896,0.376,1.144,1.265,1.266c0.889,0.123,0.295-2.041,1.265-1.688
		c0.97,0.354,4.308,3.488,5.062,4.218c0.754,0.73,0.746-1.219,1.687-1.265c0.941-0.046,1.977,0.633,2.952,1.688
		c0.975,1.054,4.193,2.973,5.062,3.796c0.869,0.823,6.278,1.622,7.592,1.687c1.314,0.065,5.647,3.179,7.592,3.374
		c1.945,0.196,0.523-1.087,2.109-1.265s-1.19-2.316-2.531-3.374c-1.341-1.059,0.537-1.475,1.265-2.109
		c0.728-0.635,2.032,1.065,2.952,2.109c0.92,1.044,0.243-2.484,0.422-3.796c0.179-1.312-1.141-2.633-1.265-3.796
		c-0.124-1.163,0.173-3.38-0.422-5.062c-0.595-1.681-2.166-4.1-3.374-5.482c-1.209-1.384-0.844-2.953-0.844-2.953
		s-0.616-2.897-1.265-3.374c-0.649-0.478-0.242-2.995,0.422-2.952c0.664,0.042,1.179-1.266,0.422-2.531
		c-0.757-1.266-0.243-2.935,0.422-2.531c0.665,0.404,0.844-2.53,0.844-2.53s1.344,1.148,1.687,2.108
		c0.343,0.96,2.212,1.757,2.952,3.374c0.741,1.618,1.592,0.659,0.844-1.265c-0.748-1.924-2.449-6.207-3.796-8.437
		c-1.347-2.228-5.991-8.928-7.17-10.545c-1.18-1.617-4.625-4.359-5.062-5.482c-0.436-1.123-5.235-5.786-8.436-10.123
		s-0.014-5.615,3.374-7.171c3.389-1.555,10.543-5.616,11.81-6.326c1.267-0.71,4.918-0.377,6.749-1.688
		c1.83-1.31,3.26-1.271,4.64-1.687c1.38-0.416,5.604-0.706,6.749-0.845c1.145-0.138,3.566-0.07,5.062,0.422
		c1.496,0.494,3.468-1.588,5.061-1.687c1.594-0.099,4.64-1.687,4.64-1.687s5.895-3.194,7.171-3.375
		c1.275-0.18,5.905-3.795,5.905-3.795s4.142-3.27,5.483-4.219c1.341-0.949,5.796-3.625,6.749-4.218
		c0.952-0.593,4.21-4.151,5.905-5.062c1.695-0.909,3.857-4.043,4.64-5.482c0.782-1.439,4.499-6.268,6.749-14.341
		C574.349,213.059,572.077,200.147,570.834,195.404z M542.574,225.35c-3.021,3.236-13.261,9.501-15.606,11.388
		c-2.345,1.887-10.91,6.775-12.653,8.015c-1.743,1.239-6.425,3.243-8.436,4.218c-2.011,0.975-7.989,4.242-8.857,5.061
		c-0.869,0.819-3.403,1.681-4.218,2.109c-0.815,0.43-3.272,0.896-4.218,1.688c-0.946,0.789-3.712,2.224-5.062,2.531
		c-1.35,0.305-2.183,1.428-2.952,2.108c-0.77,0.681-2.175,1.112-3.796,1.687c-1.621,0.575-7.592,3.996-9.279,5.062
		c-1.687,1.067-3.926-3.185-5.905-3.796c-1.979-0.611-4.303-2.285-5.483-2.953c-1.18-0.667-0.32-2.643,0-3.796
		c0.32-1.154,1.859-6.328,2.109-8.015c0.25-1.686,1.951-7.644,2.531-9.701c0.579-2.057,2.215-11.814,2.109-13.496
		c-0.106-1.682,0.38-4.08,0.422-5.483c0.042-1.403-1.186-5.714-1.265-7.17c-0.079-1.457,1.215-2.391,2.109-3.374
		c0.894-0.984-0.193-1.413,1.265-2.531c1.458-1.117,2.025-0.947,3.374-1.265s3.869-2.226,5.905-2.53
		c2.036-0.307,2.903-1.048,5.061-1.688c2.158-0.641,3.29-0.383,4.64-0.844s5.876-1.086,7.171-1.688
		c1.294-0.602,5.944,0.03,8.014-0.422c2.069-0.452,10.18-0.423,12.654-0.422c2.473,0.001,8.564-0.557,9.701-0.422
		c1.137,0.134,6.069,1.171,8.014,1.687c1.945,0.517,6.357,0.519,7.592,1.265c1.235,0.748,3.599,1.181,6.327,2.953
		c2.728,1.772,3.44,4.877,3.796,8.436C547.991,217.52,545.595,222.115,542.574,225.35z"/>
</g>
<path fill="#FFFFFF" d="M457.767,35.439c-0.72,0.119-1.14,1.016-1.686,2.109c-0.546,1.093-0.814,2.174-2.529,4.64
	c-1.715,2.465-3.672,8.187-4.215,10.123s-0.913,4.564-0.843,5.061c0.071,0.498-1.22,2.795-1.686,3.796
	c-0.466,1.001-0.427,2.744-0.421,3.374c0.006,0.631-0.464,2.38-0.843,2.953c-0.379,0.572-0.389,1.433-0.421,2.109
	c-0.032,0.676,0.471,1.438,0.843,1.687s1.264,0.844,1.264,0.844s-0.402-0.713-0.421-1.265s0.127-1.489,0.421-2.109
	c0.295-0.62,0.658-0.624,0.843-1.265c0.184-0.641,0.807-0.515,0.843,0c0.036,0.515-0.843,0.844-0.843,0.844s-0.442,1.33-0.421,2.109
	c0.02,0.779,0.149,1.827,0.421,2.109s-0.973,0.487-1.264,0.844c-0.292,0.357-1.235,0.524-1.686,0.844
	c-0.451,0.32-0.979,2.514-1.264,3.374c-0.286,0.86,0.473,0.969,0.421,1.265c-0.051,0.297-0.682,1.32-0.843,2.109
	c-0.161,0.789-1.085,1.687-1.264,2.109c-0.18,0.422-0.445,1.613-0.422,2.109c0.024,0.496-0.328,2.526-0.421,2.953
	c-0.093,0.427-0.498,0.902-0.421,1.687s-0.007,1.995-0.422,2.531c-0.414,0.536-0.588,0.861-0.843,1.687
	c-0.255,0.826-1.479,2.904-1.686,3.796s-0.919,2.214-1.264,2.953c-0.346,0.738-0.843,2.109-0.843,2.109s-0.333-0.397-0.843-0.422
	c-0.51-0.025-0.244,0.666-0.421,1.265c-0.177,0.599,0.117,1.063,0.421,1.265c0.304,0.202,0.869-0.574,0.843,0
	s0.044,1.276,0.843,1.265c0.799-0.011,1.911-2.011,2.107-2.109c0.197-0.098,0.835,0.514,0.843,0.844s0.882,0.054,1.264,0.422
	c0.382,0.368,0.465,0.928,0,0.844c-0.466-0.084-0.615-0.253-1.264-0.422c-0.65-0.169-1.067-0.214-1.264,0
	c-0.198,0.214-1.35,1.357-2.107,2.109c-0.757,0.752-1.738,2.231-2.107,2.952c-0.37,0.721-0.189,0.996-0.422,1.687
	s-1.113,1.678-1.686,1.687s-0.365-0.895,0-1.265c0.365-0.371,1.527-2.004,1.686-2.531c0.159-0.527-0.443-2.229-0.421-2.953
	c0.021-0.724,0.636-1.548,0.843-2.109s-0.388-0.719-0.422-1.687c-0.034-0.968-1.206,0.205-1.264,0.844s-0.937,3.505-1.264,4.64
	s-1.716,4.819-2.107,5.905c-0.391,1.086-1.159,0.881-1.264,1.265c-0.106,0.384,0,1.687,0,1.687s-1.044,1.23-1.264,2.109
	c-0.221,0.879-0.808,2.146-0.843,2.953s0.656,1.147,0.843,1.687c0.187,0.54-1.62,3.166-2.107,4.64
	c-0.488,1.473-0.961,2.279-0.422,3.374s2.2-1.182,2.529-1.687s0.836-2.196,0.843-2.953c0.007-0.757,0.569-1.662,0.421-2.109
	c-0.148-0.447-0.027-0.947,0.421-1.687c0.449-0.74,1.036-0.89,1.264-1.687c0.229-0.797,0.601-2.836,0.843-3.796
	s0.657-2.2,0.843-2.953s1.691-0.723,1.686,0c-0.005,0.723-0.547,1.437-0.843,2.109c-0.296,0.672-1.246,1.554-1.264,2.531
	s1.301,0.357,1.686,0s0.918-1.298,1.264-2.109s0.826-0.953,1.264-0.844c0.439,0.109-0.738,1.221-1.264,1.687
	c-0.527,0.466-0.497,0.96-0.843,1.687c-0.346,0.727-1.71,2.225-2.107,3.374c-0.397,1.15-1.524,3.116-2.529,4.64
	c-1.005,1.524-2.04,5.607-3.793,10.123c-1.753,4.516-6.265,17.214-6.744,18.559c-0.478,1.345-0.892,3.255-1.264,3.374
	s-0.439-1.549-1.264-1.687s-1.969,4.194-2.95,5.905c-0.981,1.711-0.762,4.624-0.843,5.483c-0.081,0.86-1.579,0.758-1.686,1.265
	c-0.107,0.508,0,2.109,0,2.109s-1.095,0.796-1.686,1.687c-0.59,0.891-0.969,5.705-1.686,5.905s-0.707,1.847-0.843,2.531
	c-0.136,0.683-0.554,1.499-1.686,2.531c-1.132,1.031-2.529,2.953-2.529,2.953s0.05-0.767,0-1.265
	c-0.05-0.499-0.732-0.749-1.264-0.422s-0.843,2.953-0.843,2.953s-0.758-0.402-1.264-0.844c-0.506-0.442-1.072,1.051-1.264,1.687
	c-0.192,0.637-0.498,1.559-0.843,2.952c-0.345,1.394-0.843,3.374-0.843,3.374l-0.421-1.687c0,0-1.196,0.498-1.264,0
	c-0.069-0.498-0.713-2.624-1.686-2.531c-0.973,0.093-1.264,3.374-1.264,3.374s-0.283-4.907,0.421-8.858s-0.028-5.714-0.421-6.327
	c-0.393-0.613,0.803-4.057,0.843-5.483s-0.768-3.991-0.843-4.64c-0.075-0.649,0.19-1.947,0.421-2.953s-1.013-2.51-1.686-2.531
	s-0.422,2.531-0.422,2.531s-0.87-0.715-2.95-3.796c-2.08-3.081-3.736-8.601-4.215-11.388c-0.478-2.787,0.422-3.374,0.422-3.374
	s-0.112,1.697,0,2.531s1.761,1.944,2.529,1.687c0.768-0.257,0-4.218,0-4.218s1.052,5.414,2.95,5.905c1.898,0.491,0-6.327,0-6.327
	s0.086-0.069-0.422-2.953c-0.507-2.884-0.985-8.711-1.264-12.654c-0.28-3.942-0.421-9.701-0.421-9.701s-0.399-1.674-0.421-3.796
	c-0.022-2.122-0.876-3.216-1.686-3.374s-1.478,0.78-1.686,1.687c-0.208,0.908-0.444,2.218-0.843,2.953
	c-0.399,0.734,0.486,3.257,0.421,3.796s-0.553,1.213-0.421,1.687c0.132,0.474,0.235,1.848-0.843,2.109
	c-1.078,0.261-0.809-3.353-0.843-4.64c-0.034-1.287-0.029-2.926,0-3.796s0.222-1.191,1.264-1.265
	c1.043-0.075-0.468-2.273-1.264-2.531c-0.797-0.258-0.174-1.386,0-2.109c0.174-0.723-0.444-2.442-0.421-3.374
	c0.023-0.933,0.035-6.267-0.421-6.749c-0.457-0.481-0.475-3.053-0.422-6.749c0.053-3.695-1.53-4.523-2.529-4.64
	c-0.998-0.117-2.791,1.986-4.636,3.796s-7.355,8.538-8.43,9.701c-1.074,1.163-0.857,1.702-1.264,2.531
	c-0.408,0.829-1.678,1.167-2.529,1.265c-0.851,0.099-0.819,1.106,0,1.687c0.819,0.582,2.107,0,2.107,0s-0.363,0.758-1.264,2.109
	s-6.74,7.548-9.273,10.123c-2.532,2.575-3.265,4.221-3.372,5.062c-0.107,0.841,1.686,0.422,1.686,0.422s-1.459,2.442-4.215,5.483
	s-8.569,8.989-13.066,13.076c-4.497,4.087-7.474,4.905-8.43,5.061c-0.955,0.157-3.471,2.752-4.636,2.953
	c-1.165,0.201-2.919,2.225-3.372,2.953c-0.453,0.727-1.264,1.687-1.264,1.687s-1.333-0.232-2.107-0.422
	c-0.774-0.19-3.387,2.99-4.215,3.374c-0.828,0.385-2.522,1.785-3.793,2.953c-1.271,1.168-2.95,3.796-2.95,3.796
	s-0.278-1.646-0.421-2.531c-0.144-0.884-0.841-1.107-1.686-1.265c-0.845-0.159-0.989,0.311-1.264,1.265
	c-0.275,0.955,0.299,1.723,0.422,2.109c0.122,0.386,0.027,1.697-0.422,2.109c-0.449,0.412-0.353-2.486-0.421-3.374
	c-0.069-0.889-0.501-1.868-0.421-3.796c0.079-1.928-0.958-3.419-2.107-3.374c-1.15,0.045-1.988,0.785-2.107-0.422
	s-0.667-6.454-0.422-8.858c0.246-2.404,1.115-7.961,1.264-9.279c0.149-1.318,0.719-3.309,0.843-4.218s-0.516-2.716-0.421-3.374
	s0.466-2.494,0.421-3.374s0.491-2.136,1.264-2.109c0.773,0.027,1.037-0.07,0.421-2.531c-0.616-2.46,0.585-1.262,1.264-0.844
	c0.679,0.419,0.624-1.174,0.421-1.687s-0.189-1.667,0-2.109c0.189-0.442,0.064-1.78-0.421-2.109
	c-0.486-0.329,0.486-2.497,0.843-2.953s0.21-2.441,0.843-4.64c0.633-2.198,2.897-10.872,2.95-11.81
	c0.053-0.938,1.141-2.747,1.264-3.796c0.123-1.05,0.703-2.32,1.264-2.953c0.561-0.632,0.7-2.688,0.843-3.374
	s0.368-2.983,0.421-3.796c0.053-0.813,0.802-2.157,1.264-2.531c0.463-0.374,0.024-1.926,0.422-2.953
	c0.397-1.026,1.457-3.447,1.686-3.796s-0.017-2.425,0.421-3.374c0.438-0.949,1.097-1.251,1.264-1.265
	c0.167-0.014,0.106-2.644,0.421-3.374c0.316-0.73,1.495-2.886,1.686-3.796c0.191-0.91,1.933-4.285,2.95-6.749
	c1.017-2.463,2.209-5.327,2.529-6.327c0.32-1,1.836-4.906,2.95-6.749c1.114-1.843,3.158-7.186,4.636-9.279
	c1.479-2.094,2.722-2.095,4.636-2.953c1.915-0.858,2.95-2.531,2.95-2.531s1.026-0.248,2.107-0.844s2.723-0.456,3.793-0.422
	s2.275-0.43,3.793-0.844s2.208,0.184,2.95,1.265c0.742,1.082,1.903,3.274,2.529,4.218s0.214,2.356-0.422,3.374
	c-0.636,1.018-1.327,1.537-1.264,2.109c0.063,0.572-0.748,2.28-0.843,2.952s0.925,2.432,0.843,3.796
	c-0.082,1.364-0.709,2.527-0.843,3.796c-0.134,1.269-1.001,3.853-1.686,4.64c-0.685,0.787-0.044,2.783-0.422,3.796
	c-0.378,1.014-0.815,2.143-1.686,8.014s-3.826,17.498-4.636,20.668c-0.811,3.17,0.323,3.634,1.264,3.374
	c0.941-0.26,4.215-3.796,4.215-3.796s0.704,1.408,1.686,1.687s1.948-1.57,2.529-1.687c0.581-0.117,1.109,0.895,1.686,0.844
	c0.577-0.052,7.253-4.3,9.694-6.327s10.53-7.465,11.38-7.592c0.85-0.128,2.741,0.832,3.372,0c0.631-0.832,2.529-1.265,2.529-1.265
	s-0.41,2.147,1.264,2.531c1.674,0.384,3.705-2.747,4.215-2.953s1.399,0.807,2.107,0.844c0.709,0.037,2.571-0.566,2.95-0.422
	c0.38,0.144-0.075,1.208,0,1.687c0.075,0.479-0.218,0.818-0.843,1.265c-0.625,0.447-1.148,0.908-0.843,2.109
	c0.305,1.201,1.225,0.985,1.686,0.844s2.527-1.993,2.95-2.109s0.998,0.7,1.686,0.844c0.688,0.144,0.79-0.5,1.686-0.422
	s0.602,2.184,2.95,2.109c2.348-0.075-0.474-1.598,2.529-1.687c3.003-0.089,3.774,5.709,5.058,8.858s0.639,3.333,0.421,3.374
	c-0.218,0.041-0.478,1.406-0.421,1.687c0.056,0.281,1.295-0.192,1.686,0c0.391,0.192,0.341,2.549,0.421,3.374
	c0.08,0.826,1.501,2.829,2.107,4.218c0.607,1.389,0.55,2.418,1.264,5.061c0.714,2.643,1.144,5.106,1.264,6.749
	c0.12,1.642,0.307,3.294,1.264,4.218c0.958,0.924,1.409,0.171,1.686-0.422s0.455-2.906,0.843-4.218
	c0.388-1.312,0.623-2.155,1.264-3.796c0.642-1.641,1.665-3.671,2.107-4.64c0.443-0.969,0.916-3.281,1.264-4.218
	c0.348-0.937,0.816-2.554,0.843-3.374s0.587-1.412,0.843-2.109c0.256-0.697,0.474-1.447,0.843-2.531
	c0.368-1.084,0.429-1.701,0.843-2.531c0.413-0.829,0.602-2.139,0.843-2.952s1.325-4.029,1.686-5.483s1.808-6.706,2.107-7.592
	c0.299-0.886,1.018-2.187,1.264-3.374s1.135-3.029,1.686-4.64c0.551-1.611,1.51-3.143,2.107-4.218
	c0.598-1.075,0.677-1.906,0.843-2.531c0.166-0.625,1.215-2.915,1.686-3.796c0.471-0.882,0.843-2.531,0.843-2.531
	s-0.044-1.399,0.421-2.109c0.465-0.71,1.91-4.324,2.529-5.905c0.619-1.581,1.3-5.355,4.636-8.858s8.528-5.563,9.273-6.327
	c0.744-0.763,0.729-0.328,0.843,0.422c0.114,0.749,1.967,1.748,2.529,1.687s1.264-1.265,1.264-1.265s1.287,1.079,1.264,1.687
	c-0.022,0.608-0.42,1.076-0.421,1.687c-0.002,0.611,0.616,0.857,1.264,1.265C458.416,34.583,458.487,35.321,457.767,35.439z
	 M327.53,95.334c-0.189-0.392,0.09-0.814-0.421-0.844c-0.511-0.03-1.411,0.345-1.264,0.844s0.376,1.325,0.843,1.265
	C327.154,96.539,327.719,95.726,327.53,95.334z M336.381,66.652c-0.117-0.913-0.704-1.003-1.264-0.844
	c-0.561,0.159-1.25,0.29-1.264,1.265c-0.014,0.975,0.558,2.171,1.264,1.687C335.823,68.277,336.498,67.565,336.381,66.652z
	 M381.479,105.878c-0.34-0.108-0.034-0.579-0.421-0.844c-0.388-0.265-1.275,0.312-1.264,0.844c0.011,0.532,0.435,1.259,0.843,1.265
	C381.044,107.15,381.819,105.987,381.479,105.878z M392.781,106.722c-0.031-0.211-0.26-0.581-0.413-0.422
	c-0.152,0.159-0.462,0.585-0.413,0.844c0.075,0.388,0.691,0.861,0.825,0.844C392.915,107.97,392.812,106.933,392.781,106.722z
	 M393.702,138.778c-0.319-0.322-0.281-0.987-0.421-1.687c-0.141-0.7-0.225-1.961-0.843-2.109c-0.617-0.148-1.65,0.367-1.686,1.687
	c-0.008,0.284,0.402,1.121,0.421,1.687c0.019,0.566,0.392,2.148,1.264,2.109C393.311,140.426,394.021,139.1,393.702,138.778z
	 M397.917,122.75c-0.151-0.41-0.573-1.25-0.843-1.265c-0.27-0.015-0.362,0.431-0.422,0.844c-0.059,0.412,0.024,0.749,0.422,0.844
	C397.472,123.266,398.068,123.16,397.917,122.75z M399.182,113.471c-0.096-0.481-0.849-0.452-0.843-0.422
	c0.006,0.03-0.065,0.683,0,0.844c0.065,0.16,0.53,0.498,0.843,0.422C399.494,114.238,399.277,113.952,399.182,113.471z
	 M413.512,121.063c-0.357-0.143-0.535-0.029-0.843,0.422c-0.308,0.45-0.838,0.56-0.843,1.265s0.303,2.226,0.843,2.109
	c0.54-0.117,1.09-1.017,1.264-1.687C414.108,122.502,413.869,121.206,413.512,121.063z"/>
<path fill="#FFFFFF" d="M379.437,137.091c0.296,0.827,1.154,2.558,1.265,3.374c0.112,0.817,0.698,2.709,0.422,3.796
	c-0.276,1.088-0.247,1.505,0,2.109c0.247,0.604,0.393,1.811,0.422,2.531c0.029,0.72,0.334-1.404,0.422-2.531
	c0.088-1.126,0.44-1.447,0.844-2.109c0.404-0.662-0.473-1.382-0.844-2.109s-0.404-1.997-0.844-3.374
	c-0.612-1.92-0.344-3.473-0.844-3.796C379.781,134.659,379.141,136.264,379.437,137.091z"/>
</svg>
