<?xml version="1.0" encoding="utf-8"?>
<!-- Generator: Adobe Illustrator 17.0.0, SVG Export Plug-In . SVG Version: 6.00 Build 0)  -->
<!DOCTYPE svg PUBLIC "-//W3C//DTD SVG 1.1//EN" "http://www.w3.org/Graphics/SVG/1.1/DTD/svg11.dtd">
<svg version="1.1" id="Layer_1" xmlns="http://www.w3.org/2000/svg" xmlns:xlink="http://www.w3.org/1999/xlink" x="0px" y="0px"
	 width="37px" height="38px" viewBox="0 0 37 38" enable-background="new 0 0 37 38" xml:space="preserve">
<path fill-rule="evenodd" clip-rule="evenodd" d="M36.86,1.581c-0.159,0.026-0.252,0.225-0.373,0.466
	c-0.121,0.242-0.18,0.481-0.559,1.026c-0.379,0.545-0.812,1.811-0.932,2.239c-0.12,0.428-0.202,1.009-0.186,1.119
	c0.016,0.11-0.27,0.618-0.373,0.84c-0.103,0.221-0.094,0.607-0.093,0.746c0.001,0.139-0.103,0.526-0.186,0.653
	c-0.084,0.127-0.086,0.317-0.093,0.466c-0.007,0.149,0.104,0.318,0.186,0.373c0.082,0.055,0.28,0.187,0.28,0.187
	s-0.089-0.158-0.093-0.28c-0.004-0.122,0.028-0.329,0.093-0.466c0.065-0.137,0.146-0.138,0.186-0.28
	c0.041-0.142,0.178-0.114,0.186,0c0.008,0.114-0.186,0.187-0.186,0.187s-0.098,0.294-0.093,0.466
	c0.004,0.172,0.033,0.404,0.093,0.466c0.06,0.062-0.215,0.108-0.28,0.187c-0.065,0.079-0.273,0.116-0.373,0.187
	c-0.1,0.071-0.216,0.556-0.28,0.746c-0.063,0.19,0.105,0.214,0.093,0.28c-0.011,0.066-0.151,0.292-0.186,0.466
	c-0.036,0.174-0.24,0.373-0.28,0.466c-0.04,0.093-0.098,0.357-0.093,0.466c0.005,0.11-0.073,0.559-0.093,0.653
	c-0.021,0.094-0.11,0.2-0.093,0.373c0.017,0.174-0.002,0.441-0.093,0.56c-0.092,0.119-0.13,0.19-0.186,0.373
	c-0.056,0.183-0.327,0.642-0.373,0.84c-0.046,0.197-0.203,0.49-0.28,0.653c-0.076,0.163-0.186,0.466-0.186,0.466
	s-0.074-0.088-0.186-0.093c-0.113-0.005-0.054,0.147-0.093,0.28c-0.039,0.133,0.026,0.235,0.093,0.28
	c0.067,0.045,0.192-0.127,0.186,0c-0.006,0.127,0.01,0.282,0.186,0.28c0.177-0.002,0.423-0.445,0.466-0.466
	c0.044-0.022,0.185,0.114,0.186,0.187c0.002,0.073,0.195,0.012,0.28,0.093c0.085,0.081,0.103,0.205,0,0.187
	c-0.103-0.019-0.136-0.056-0.28-0.093c-0.144-0.037-0.236-0.047-0.28,0c-0.044,0.047-0.299,0.3-0.466,0.466
	c-0.167,0.166-0.384,0.493-0.466,0.653c-0.082,0.16-0.042,0.22-0.093,0.373c-0.052,0.153-0.246,0.371-0.373,0.373
	c-0.127,0.002-0.081-0.198,0-0.28c0.081-0.082,0.338-0.443,0.373-0.56c0.035-0.116-0.098-0.493-0.093-0.653
	c0.005-0.16,0.141-0.342,0.186-0.466c0.046-0.124-0.086-0.159-0.093-0.373c-0.007-0.214-0.267,0.045-0.28,0.187
	c-0.013,0.141-0.207,0.775-0.28,1.026c-0.072,0.251-0.379,1.066-0.466,1.306c-0.087,0.24-0.256,0.195-0.28,0.28
	c-0.023,0.085,0,0.373,0,0.373s-0.231,0.272-0.28,0.466c-0.049,0.194-0.179,0.475-0.186,0.653c-0.008,0.178,0.145,0.254,0.186,0.373
	c0.041,0.119-0.358,0.7-0.466,1.026c-0.108,0.326-0.212,0.504-0.093,0.746c0.119,0.242,0.487-0.261,0.559-0.373
	c0.073-0.112,0.185-0.486,0.186-0.653c0.002-0.167,0.126-0.368,0.093-0.466c-0.033-0.099-0.006-0.209,0.093-0.373
	c0.099-0.164,0.229-0.197,0.28-0.373c0.051-0.176,0.133-0.627,0.186-0.84c0.054-0.212,0.145-0.487,0.186-0.653
	c0.041-0.166,0.374-0.16,0.373,0c-0.001,0.16-0.121,0.318-0.186,0.466c-0.065,0.149-0.276,0.344-0.28,0.56
	c-0.004,0.216,0.288,0.079,0.373,0c0.085-0.079,0.203-0.287,0.28-0.466c0.077-0.179,0.183-0.211,0.28-0.187
	c0.097,0.024-0.163,0.27-0.28,0.373c-0.116,0.103-0.11,0.212-0.186,0.373c-0.077,0.161-0.378,0.492-0.466,0.746
	c-0.088,0.254-0.337,0.689-0.559,1.026c-0.222,0.337-0.451,1.24-0.839,2.239c-0.388,0.999-1.386,3.807-1.491,4.104
	c-0.106,0.297-0.197,0.72-0.28,0.746c-0.082,0.026-0.097-0.343-0.28-0.373c-0.183-0.03-0.436,0.928-0.653,1.306
	c-0.217,0.378-0.168,1.023-0.186,1.213c-0.018,0.19-0.349,0.168-0.373,0.28c-0.024,0.112,0,0.466,0,0.466s-0.242,0.176-0.373,0.373
	c-0.131,0.197-0.214,1.262-0.373,1.306c-0.159,0.044-0.156,0.409-0.186,0.56s-0.123,0.332-0.373,0.56
	c-0.25,0.228-0.559,0.653-0.559,0.653s0.011-0.17,0-0.28c-0.011-0.11-0.162-0.166-0.28-0.093c-0.118,0.072-0.186,0.653-0.186,0.653
	s-0.168-0.089-0.28-0.187c-0.112-0.098-0.237,0.232-0.28,0.373c-0.042,0.141-0.11,0.345-0.186,0.653
	c-0.076,0.308-0.186,0.746-0.186,0.746l-0.093-0.373c0,0-0.264,0.11-0.28,0c-0.015-0.11-0.158-0.58-0.373-0.56
	c-0.215,0.021-0.28,0.746-0.28,0.746s-0.062-1.085,0.093-1.959c0.156-0.874-0.006-1.264-0.093-1.399
	c-0.087-0.135,0.178-0.897,0.186-1.213c0.009-0.315-0.17-0.883-0.186-1.026c-0.017-0.143,0.042-0.431,0.093-0.653
	c0.051-0.222-0.224-0.555-0.373-0.56c-0.149-0.005-0.093,0.56-0.093,0.56s-0.192-0.158-0.653-0.84
	c-0.46-0.681-0.826-1.902-0.932-2.519c-0.106-0.616,0.093-0.746,0.093-0.746s-0.025,0.375,0,0.56
	c0.025,0.184,0.389,0.43,0.559,0.373c0.17-0.057,0-0.933,0-0.933s0.233,1.197,0.653,1.306c0.42,0.109,0-1.399,0-1.399
	s0.019-0.015-0.093-0.653c-0.112-0.638-0.218-1.927-0.28-2.799c-0.062-0.872-0.093-2.146-0.093-2.146s-0.088-0.37-0.093-0.84
	c-0.005-0.469-0.194-0.711-0.373-0.746c-0.179-0.035-0.327,0.172-0.373,0.373c-0.046,0.201-0.098,0.491-0.186,0.653
	c-0.088,0.162,0.108,0.72,0.093,0.84c-0.014,0.119-0.122,0.268-0.093,0.373c0.029,0.105,0.052,0.409-0.186,0.466
	c-0.238,0.058-0.179-0.741-0.186-1.026c-0.007-0.285-0.006-0.647,0-0.84c0.006-0.192,0.049-0.263,0.28-0.28
	c0.231-0.017-0.103-0.503-0.28-0.56c-0.176-0.057-0.038-0.306,0-0.466c0.038-0.16-0.098-0.54-0.093-0.746
	c0.005-0.206,0.008-1.386-0.093-1.493c-0.101-0.106-0.105-0.675-0.093-1.493c0.012-0.817-0.338-1-0.559-1.026
	c-0.221-0.026-0.617,0.439-1.025,0.84c-0.408,0.4-1.627,1.888-1.864,2.146c-0.238,0.257-0.189,0.376-0.28,0.56
	c-0.09,0.183-0.371,0.258-0.559,0.28c-0.188,0.022-0.181,0.245,0,0.373c0.181,0.129,0.466,0,0.466,0s-0.08,0.168-0.28,0.466
	c-0.199,0.299-1.491,1.669-2.051,2.239c-0.56,0.569-0.722,0.934-0.746,1.119c-0.024,0.186,0.373,0.093,0.373,0.093
	s-0.323,0.54-0.932,1.213c-0.61,0.673-1.895,1.988-2.89,2.892c-0.995,0.904-1.653,1.085-1.864,1.119
	c-0.211,0.035-0.768,0.609-1.025,0.653c-0.258,0.044-0.646,0.492-0.746,0.653c-0.1,0.161-0.28,0.373-0.28,0.373
	s-0.295-0.051-0.466-0.093c-0.171-0.042-0.749,0.661-0.932,0.746c-0.183,0.085-0.558,0.395-0.839,0.653
	c-0.281,0.258-0.653,0.84-0.653,0.84s-0.061-0.364-0.093-0.56c-0.032-0.196-0.186-0.245-0.373-0.28
	c-0.187-0.035-0.219,0.069-0.28,0.28c-0.061,0.211,0.066,0.381,0.093,0.466c0.027,0.085,0.006,0.375-0.093,0.466
	c-0.099,0.091-0.078-0.55-0.093-0.746c-0.015-0.197-0.111-0.413-0.093-0.84c0.018-0.426-0.212-0.756-0.466-0.746
	c-0.254,0.01-0.44,0.174-0.466-0.093C0.107,29.392-0.014,28.232,0.04,27.7c0.054-0.532,0.247-1.761,0.28-2.052
	c0.033-0.292,0.159-0.732,0.186-0.933c0.027-0.201-0.114-0.601-0.093-0.746c0.021-0.146,0.103-0.552,0.093-0.746
	c-0.01-0.195,0.109-0.472,0.28-0.466c0.171,0.006,0.229-0.016,0.093-0.56c-0.136-0.544,0.129-0.279,0.28-0.187
	c0.15,0.093,0.138-0.26,0.093-0.373c-0.045-0.113-0.042-0.369,0-0.466c0.042-0.098,0.014-0.394-0.093-0.466
	c-0.107-0.073,0.107-0.552,0.186-0.653c0.079-0.101,0.046-0.54,0.186-1.026c0.14-0.486,0.641-2.405,0.653-2.612
	c0.012-0.207,0.252-0.607,0.28-0.84c0.027-0.232,0.156-0.513,0.28-0.653c0.124-0.14,0.155-0.595,0.186-0.746
	c0.032-0.152,0.081-0.66,0.093-0.84c0.012-0.18,0.177-0.477,0.28-0.56c0.102-0.083,0.005-0.426,0.093-0.653
	c0.088-0.227,0.322-0.762,0.373-0.84c0.051-0.077-0.004-0.536,0.093-0.746c0.097-0.21,0.243-0.277,0.28-0.28
	c0.037-0.003,0.023-0.585,0.093-0.746c0.07-0.161,0.331-0.638,0.373-0.84C4.65,8.469,5.035,7.723,5.26,7.178
	C5.485,6.633,5.749,6,5.819,5.779C5.89,5.558,6.226,4.694,6.472,4.286C6.718,3.879,7.17,2.697,7.497,2.234
	c0.327-0.463,0.602-0.463,1.025-0.653c0.423-0.19,0.653-0.56,0.653-0.56s0.227-0.055,0.466-0.187
	c0.239-0.132,0.602-0.101,0.839-0.093c0.237,0.007,0.503-0.095,0.839-0.187c0.336-0.092,0.488,0.041,0.653,0.28
	c0.164,0.239,0.421,0.724,0.559,0.933c0.138,0.209,0.047,0.521-0.093,0.746c-0.141,0.225-0.293,0.34-0.28,0.466
	c0.014,0.126-0.165,0.504-0.186,0.653c-0.021,0.149,0.205,0.538,0.186,0.84c-0.018,0.302-0.157,0.559-0.186,0.84
	c-0.03,0.281-0.221,0.852-0.373,1.026c-0.152,0.174-0.01,0.615-0.093,0.84c-0.084,0.224-0.18,0.474-0.373,1.772
	c-0.193,1.298-0.846,3.87-1.025,4.571c-0.179,0.701,0.071,0.804,0.28,0.746c0.208-0.057,0.932-0.84,0.932-0.84
	s0.156,0.311,0.373,0.373c0.217,0.062,0.431-0.347,0.559-0.373c0.128-0.026,0.245,0.198,0.373,0.187
	c0.128-0.011,1.604-0.951,2.144-1.399c0.54-0.448,2.329-1.651,2.517-1.679c0.188-0.028,0.606,0.184,0.746,0
	c0.139-0.184,0.559-0.28,0.559-0.28s-0.091,0.475,0.28,0.56c0.37,0.085,0.819-0.607,0.932-0.653
	c0.113-0.046,0.309,0.178,0.466,0.187c0.157,0.008,0.569-0.125,0.653-0.093c0.084,0.032-0.017,0.267,0,0.373
	c0.017,0.106-0.048,0.181-0.186,0.28c-0.138,0.099-0.254,0.201-0.186,0.466c0.067,0.266,0.271,0.218,0.373,0.187
	c0.102-0.031,0.559-0.441,0.653-0.466c0.094-0.026,0.221,0.155,0.373,0.187c0.152,0.032,0.175-0.11,0.373-0.093
	c0.198,0.017,0.133,0.483,0.653,0.466c0.519-0.017-0.105-0.354,0.559-0.373c0.664-0.02,0.835,1.263,1.119,1.959
	c0.284,0.696,0.141,0.737,0.093,0.746c-0.048,0.009-0.106,0.311-0.093,0.373c0.012,0.062,0.286-0.042,0.373,0
	c0.086,0.042,0.075,0.564,0.093,0.746c0.018,0.183,0.332,0.626,0.466,0.933c0.134,0.307,0.122,0.535,0.28,1.119
	c0.158,0.585,0.253,1.129,0.28,1.493c0.027,0.363,0.068,0.728,0.28,0.933c0.212,0.204,0.312,0.038,0.373-0.093
	c0.061-0.131,0.101-0.643,0.186-0.933c0.086-0.29,0.138-0.477,0.28-0.84c0.142-0.363,0.368-0.812,0.466-1.026
	c0.098-0.214,0.203-0.726,0.28-0.933c0.077-0.207,0.181-0.565,0.186-0.746c0.006-0.181,0.13-0.312,0.186-0.466
	c0.057-0.154,0.105-0.32,0.186-0.56c0.081-0.24,0.095-0.376,0.186-0.56c0.091-0.183,0.133-0.473,0.186-0.653
	c0.053-0.18,0.293-0.891,0.373-1.213c0.08-0.322,0.4-1.483,0.466-1.679c0.066-0.196,0.225-0.484,0.28-0.746
	c0.055-0.263,0.251-0.67,0.373-1.026c0.122-0.356,0.334-0.695,0.466-0.933c0.132-0.238,0.15-0.422,0.186-0.56
	c0.037-0.138,0.269-0.645,0.373-0.84c0.104-0.195,0.186-0.56,0.186-0.56s-0.01-0.309,0.093-0.466s0.423-0.956,0.559-1.306
	c0.137-0.35,0.287-1.184,1.025-1.959c0.738-0.775,1.886-1.23,2.051-1.399c0.165-0.169,0.161-0.072,0.186,0.093
	c0.025,0.166,0.435,0.387,0.559,0.373c0.124-0.013,0.28-0.28,0.28-0.28s0.285,0.239,0.28,0.373
	c-0.005,0.135-0.093,0.238-0.093,0.373c0,0.135,0.136,0.189,0.28,0.28C37.004,1.392,37.019,1.555,36.86,1.581z M8.057,14.827
	c-0.042-0.087,0.02-0.18-0.093-0.187c-0.113-0.007-0.312,0.076-0.28,0.187c0.032,0.11,0.083,0.293,0.186,0.28
	C7.973,15.094,8.098,14.914,8.057,14.827z M10.014,8.484c-0.026-0.202-0.156-0.222-0.28-0.187c-0.124,0.035-0.276,0.064-0.28,0.28
	c-0.003,0.216,0.123,0.48,0.28,0.373C9.891,8.843,10.04,8.686,10.014,8.484z M19.988,17.159c-0.075-0.024-0.007-0.128-0.093-0.187
	c-0.086-0.059-0.282,0.069-0.28,0.187c0.002,0.118,0.096,0.278,0.186,0.28C19.892,17.441,20.063,17.183,19.988,17.159z
	 M22.488,17.346c-0.007-0.047-0.058-0.128-0.091-0.093c-0.034,0.035-0.102,0.129-0.091,0.187c0.017,0.086,0.153,0.19,0.183,0.187
	C22.517,17.622,22.495,17.393,22.488,17.346z M22.691,24.436c-0.071-0.071-0.062-0.218-0.093-0.373
	c-0.031-0.155-0.05-0.434-0.186-0.466c-0.137-0.033-0.365,0.081-0.373,0.373c-0.002,0.063,0.089,0.248,0.093,0.373
	c0.004,0.125,0.087,0.475,0.28,0.466C22.605,24.8,22.762,24.507,22.691,24.436z M23.624,20.891c-0.033-0.091-0.127-0.276-0.186-0.28
	c-0.06-0.003-0.08,0.095-0.093,0.187c-0.013,0.091,0.005,0.166,0.093,0.187C23.525,21.005,23.657,20.981,23.624,20.891z
	 M23.903,18.838c-0.021-0.106-0.188-0.1-0.186-0.093c0.001,0.007-0.014,0.151,0,0.187c0.014,0.035,0.117,0.11,0.186,0.093
	C23.972,19.008,23.925,18.945,23.903,18.838z M27.073,20.518c-0.079-0.032-0.118-0.006-0.186,0.093
	c-0.068,0.1-0.185,0.124-0.186,0.28c-0.001,0.156,0.067,0.492,0.186,0.466c0.119-0.026,0.241-0.225,0.28-0.373
	C27.204,20.836,27.152,20.549,27.073,20.518z"/>
<path fill-rule="evenodd" clip-rule="evenodd" d="M19.51,24.062c0.065,0.183,0.255,0.566,0.28,0.746
	c0.025,0.181,0.154,0.599,0.093,0.84c-0.061,0.241-0.055,0.333,0,0.466c0.055,0.133,0.087,0.401,0.093,0.56
	c0.006,0.159,0.074-0.311,0.093-0.56c0.02-0.249,0.097-0.32,0.187-0.466s-0.105-0.306-0.187-0.466
	c-0.082-0.161-0.089-0.442-0.187-0.746c-0.135-0.425-0.076-0.768-0.187-0.84C19.586,23.525,19.445,23.88,19.51,24.062z"/>
</svg>
